<?xml version="1.0" encoding="UTF-8" standalone="no"?>
<!-- Created with Inkscape (http://www.inkscape.org/) -->
<svg
   xmlns:svg="http://www.w3.org/2000/svg"
   xmlns="http://www.w3.org/2000/svg"
   version="1.0"
   width="219.98375"
   height="84.98188"
   id="svg4577">
  <defs
     id="defs4579" />
  <g
     transform="translate(149.99188,-38.442669)"
     id="layer1">
    <path
       d="M -118.66224,119.08929 L -111.20349,119.08929 L -111.20349,84.028044 L -118.66224,84.028044 L -118.66224,119.08929 z"
       id="path575"
       style="fill:#006633;fill-opacity:1;fill-rule:nonzero;stroke:none" />
    <path
       d="M -79.866124,46.165294 L -97.769874,89.387794 L -97.769874,119.09029 L -90.308624,119.09029 L -90.308624,90.871544 L -79.866124,65.657794 L -79.866124,46.165294 z"
       id="path579"
       style="fill:#006633;fill-opacity:1;fill-rule:nonzero;stroke:none" />
    <path
       d="M -87.958242,38.442669 L -108.21199,87.342669 L -108.21199,119.09017 L -100.75324,119.09017 L -100.75324,88.827669 L -79.884492,38.442669 L -87.958242,38.442669 z"
       id="path583"
       style="fill:#84b819;fill-opacity:1;fill-rule:nonzero;stroke:none" />
    <path
       d="M -144.64512,38.442669 L -149.99137,38.442669 L -149.99137,43.815169 L -129.10512,73.642669 L -129.10512,108.64892 L -121.64512,108.64892 L -121.64512,71.291419 L -144.64512,38.442669 z"
       id="path587"
       style="fill:#006633;fill-opacity:1;fill-rule:nonzero;stroke:none" />
    <path
       d="M -149.99188,49.012056 L -149.99188,62.017056 L -139.54813,76.932056 L -139.54813,115.36206 L -132.08938,115.36206 L -132.08938,74.580806 L -149.99188,49.012056 z"
       id="path591"
       style="fill:#84b819;fill-opacity:1;fill-rule:nonzero;stroke:none" />
    <g
       transform="matrix(1.25,0,0,-1.25,-76.357994,94.682294)"
       id="g601">
      <path
         d="M 0,0 L 0.71,0 C 1.888,0 2.892,0.355 2.892,1.724 C 2.892,3.283 1.636,3.397 0.394,3.397 L 0,3.397 L 0,0 z M 0,-5.173 L -1.064,-5.173 L -1.064,4.385 L 0.507,4.385 C 1.331,4.385 2.181,4.36 2.878,3.879 C 3.588,3.384 3.956,2.547 3.956,1.698 C 3.956,0.924 3.639,0.138 3.042,-0.355 C 2.396,-0.889 1.571,-0.989 0.774,-0.989 L 0,-0.989 L 0,-5.173 z"
         id="path603"
         style="fill:#00492c;fill-opacity:1;fill-rule:nonzero;stroke:none" />
    </g>
    <g
       transform="matrix(1.25,0,0,-1.25,-63.262124,94.050406)"
       id="g605">
      <path
         d="M 0,0 L 0,3.88 L 1.064,3.88 L 1.064,-5.678 L 0,-5.678 L 0,-0.988 L -4.177,-0.988 L -4.177,-5.678 L -5.241,-5.678 L -5.241,3.88 L -4.177,3.88 L -4.177,0 L 0,0 z"
         id="path607"
         style="fill:#00492c;fill-opacity:1;fill-rule:nonzero;stroke:none" />
    </g>
    <g
       transform="matrix(1.25,0,0,-1.25,-55.144374,99.912794)"
       id="g609">
      <path
         d="M 0,0 L 3.382,0 L 3.382,-0.988 L -1.038,-0.988 L -1.038,8.57 L 0,8.57 L 0,0 z"
         id="path611"
         style="fill:#00492c;fill-opacity:1;fill-rule:nonzero;stroke:none" />
    </g>
    <g
       transform="matrix(1.25,0,0,-1.25,-48.571104,97.852919)"
       id="g613">
      <path
         d="M 0,0 C 0,-1 0.113,-1.863 1.344,-1.863 C 2.573,-1.863 2.688,-1 2.688,0 L 2.688,3.321 L 3.701,3.321 L 3.701,-0.114 C 3.701,-1.699 3.107,-2.801 1.344,-2.801 C -0.418,-2.801 -1.014,-1.699 -1.014,-0.114 L -1.014,3.321 L 0,3.321 L 0,0 z"
         id="path615"
         style="fill:#00492c;fill-opacity:1;fill-rule:nonzero;stroke:none" />
    </g>
    <g
       transform="matrix(1.25,0,0,-1.25,-40.805994,97.344419)"
       id="g617">
      <path
         d="M 0,0 C 0,-1.167 0.685,-2.27 1.953,-2.27 C 3.259,-2.27 3.942,-1.218 3.942,-0.013 C 3.942,1.178 3.195,2.141 1.94,2.141 C 0.761,2.141 0,1.115 0,0 M 3.892,-2.22 L 3.866,-2.22 C 3.372,-2.866 2.624,-3.208 1.813,-3.208 C 0.063,-3.208 -1.038,-1.724 -1.038,-0.076 C -1.038,1.622 0.039,3.08 1.825,3.08 C 2.624,3.08 3.386,2.7 3.866,2.066 L 3.892,2.066 L 3.892,6.515 L 4.906,6.515 L 4.906,-3.043 L 3.892,-3.043 L 3.892,-2.22 z"
         id="path619"
         style="fill:#00492c;fill-opacity:1;fill-rule:nonzero;stroke:none" />
    </g>
    <g
       transform="matrix(1.25,0,0,-1.25,-29.361994,98.739306)"
       id="g621">
      <path
         d="M 0,0 L 1.85,4.487 L 3.712,0 L 5.486,4.03 L 6.641,4.03 L 3.688,-2.346 L 1.85,2.091 L 0.012,-2.346 L -2.918,4.03 L -1.765,4.03 L 0,0 z"
         id="path623"
         style="fill:#00492c;fill-opacity:1;fill-rule:nonzero;stroke:none" />
    </g>
    <path
       d="M -18.142244,101.14804 L -19.413494,101.14804 L -19.413494,93.700544 L -18.142244,93.700544 L -18.142244,101.14804 z M -17.874744,90.894294 C -17.874744,91.401794 -18.288494,91.798044 -18.777244,91.798044 C -19.267244,91.798044 -19.679744,91.401794 -19.679744,90.894294 C -19.679744,90.404294 -19.267244,89.993044 -18.777244,89.993044 C -18.288494,89.993044 -17.874744,90.404294 -17.874744,90.894294"
       id="path625"
       style="fill:#00492c;fill-opacity:1;fill-rule:nonzero;stroke:none" />
    <g
       transform="matrix(1.25,0,0,-1.25,-14.751384,97.344419)"
       id="g627">
      <path
         d="M 0,0 C 0,-1.167 0.685,-2.27 1.95,-2.27 C 3.257,-2.27 3.942,-1.218 3.942,-0.013 C 3.942,1.178 3.194,2.141 1.938,2.141 C 0.761,2.141 0,1.115 0,0 M 4.905,-2.751 C 4.905,-3.701 4.905,-4.526 4.298,-5.312 C 3.739,-6.022 2.876,-6.364 1.99,-6.364 C 0.329,-6.364 -0.9,-5.312 -0.938,-3.626 L 0.075,-3.626 C 0.087,-4.73 0.887,-5.426 1.978,-5.426 C 3.548,-5.426 3.892,-4.273 3.892,-2.928 L 3.892,-2.22 L 3.868,-2.22 C 3.384,-2.839 2.599,-3.208 1.8,-3.208 C 0.064,-3.208 -1.04,-1.751 -1.04,-0.09 C -1.04,1.585 0.075,3.08 1.837,3.08 C 2.663,3.08 3.384,2.712 3.868,2.066 L 3.892,2.066 L 3.892,2.915 L 4.905,2.915 L 4.905,-2.751 z"
         id="path629"
         style="fill:#00492c;fill-opacity:1;fill-rule:nonzero;stroke:none" />
    </g>
    <g
       transform="matrix(1.25,0,0,-1.25,-2.6602344,95.427419)"
       id="g631">
      <path
         d="M 0,0 C -0.139,0.317 -0.445,0.607 -0.813,0.607 C -1.166,0.607 -1.549,0.331 -1.549,-0.051 C -1.549,-0.596 -0.862,-0.8 -0.166,-1.09 C 0.532,-1.382 1.217,-1.801 1.217,-2.801 C 1.217,-3.932 0.305,-4.742 -0.799,-4.742 C -1.8,-4.742 -2.586,-4.171 -2.903,-3.233 L -2.003,-2.853 C -1.75,-3.411 -1.459,-3.803 -0.785,-3.803 C -0.24,-3.803 0.178,-3.435 0.178,-2.891 C 0.178,-1.56 -2.51,-2.016 -2.51,-0.14 C -2.51,0.861 -1.699,1.546 -0.735,1.546 C -0.05,1.546 0.584,1.064 0.85,0.443 L 0,0 z"
         id="path633"
         style="fill:#00492c;fill-opacity:1;fill-rule:nonzero;stroke:none" />
    </g>
    <g
       transform="matrix(1.25,0,0,-1.25,1.9515056,97.344419)"
       id="g635">
      <path
         d="M 0,0 C 0,-1.167 0.684,-2.27 1.951,-2.27 C 3.259,-2.27 3.942,-1.218 3.942,-0.013 C 3.942,1.178 3.193,2.141 1.938,2.141 C 0.761,2.141 0,1.115 0,0 M -0.964,6.515 L 0.051,6.515 L 0.051,2.066 L 0.076,2.066 C 0.557,2.7 1.305,3.08 2.117,3.08 C 3.893,3.08 4.982,1.622 4.982,-0.064 C 4.982,-1.724 3.879,-3.208 2.129,-3.208 C 1.305,-3.208 0.557,-2.866 0.076,-2.22 L 0.051,-2.22 L 0.051,-3.043 L -0.964,-3.043 L -0.964,6.515 z"
         id="path637"
         style="fill:#00492c;fill-opacity:1;fill-rule:nonzero;stroke:none" />
    </g>
    <g
       transform="matrix(1.25,0,0,-1.25,11.284996,97.852919)"
       id="g639">
      <path
         d="M 0,0 C 0,-1 0.114,-1.863 1.345,-1.863 C 2.574,-1.863 2.688,-1 2.688,0 L 2.688,3.321 L 3.702,3.321 L 3.702,-0.114 C 3.702,-1.699 3.105,-2.801 1.345,-2.801 C -0.418,-2.801 -1.012,-1.699 -1.012,-0.114 L -1.012,3.321 L 0,3.321 L 0,0 z"
         id="path641"
         style="fill:#00492c;fill-opacity:1;fill-rule:nonzero;stroke:none" />
    </g>
    <g
       transform="matrix(1.25,0,0,-1.25,19.589496,94.510182)"
       id="g643">
      <path
         d="M 0,0 L 0.024,0 C 0.38,0.47 0.685,0.813 1.345,0.813 C 1.687,0.813 1.964,0.698 2.257,0.534 L 1.774,-0.393 C 1.573,-0.253 1.434,-0.126 1.167,-0.126 C 0.052,-0.126 0,-1.558 0,-2.332 L 0,-5.311 L -1.015,-5.311 L -1.015,0.647 L 0,0.647 L 0,0 z"
         id="path645"
         style="fill:#00492c;fill-opacity:1;fill-rule:nonzero;stroke:none" />
    </g>
    <g
       transform="matrix(1.25,0,0,-1.25,24.439116,97.344419)"
       id="g647">
      <path
         d="M 0,0 C 0,-1.167 0.686,-2.27 1.95,-2.27 C 3.258,-2.27 3.941,-1.218 3.941,-0.013 C 3.941,1.178 3.194,2.141 1.939,2.141 C 0.762,2.141 0,1.115 0,0 M 4.904,-2.751 C 4.904,-3.701 4.904,-4.526 4.297,-5.312 C 3.74,-6.022 2.877,-6.364 1.99,-6.364 C 0.329,-6.364 -0.899,-5.312 -0.939,-3.626 L 0.075,-3.626 C 0.088,-4.73 0.889,-5.426 1.979,-5.426 C 3.551,-5.426 3.891,-4.273 3.891,-2.928 L 3.891,-2.22 L 3.867,-2.22 C 3.385,-2.839 2.598,-3.208 1.8,-3.208 C 0.064,-3.208 -1.039,-1.751 -1.039,-0.09 C -1.039,1.585 0.075,3.08 1.838,3.08 C 2.662,3.08 3.385,2.712 3.867,2.066 L 3.891,2.066 L 3.891,2.915 L 4.904,2.915 L 4.904,-2.751 z"
         id="path649"
         style="fill:#00492c;fill-opacity:1;fill-rule:nonzero;stroke:none" />
    </g>
    <g
       transform="matrix(1.25,0,0,-1.25,-70.237374,106.97768)"
       id="g651">
      <path
         d="M 0,0 L 0.617,0 L 0.617,-6.04 C 0.617,-7.03 0.617,-7.877 -0.039,-8.686 C -0.694,-9.431 -1.695,-9.819 -2.672,-9.819 C -3.648,-9.819 -4.651,-9.431 -5.306,-8.686 C -5.961,-7.877 -5.961,-7.03 -5.961,-6.04 L -5.961,0 L -5.345,0 L -5.345,-5.86 C -5.345,-6.732 -5.345,-7.658 -4.843,-8.3 C -4.367,-8.918 -3.418,-9.238 -2.672,-9.238 C -1.928,-9.238 -0.978,-8.918 -0.501,-8.3 C 0,-7.658 0,-6.732 0,-5.86 L 0,0 z"
         id="path653"
         style="fill:#00492c;fill-opacity:1;fill-rule:nonzero;stroke:none" />
    </g>
    <g
       transform="matrix(1.25,0,0,-1.25,-66.317624,112.82604)"
       id="g655">
      <path
         d="M 0,0 L 0.025,0 C 0.373,0.656 1.014,1.054 1.785,1.054 C 3.314,1.054 3.738,0.104 3.738,-1.426 L 3.738,-5.011 L 3.16,-5.011 L 3.16,-1.426 C 3.16,-0.359 3.033,0.514 1.732,0.514 C 0.244,0.514 0,-0.874 0,-2.082 L 0,-5.011 L -0.579,-5.011 L -0.579,0.926 L 0,0.926 L 0,0 z"
         id="path657"
         style="fill:#00492c;fill-opacity:1;fill-rule:nonzero;stroke:none" />
    </g>
    <path
       d="M -58.175994,119.08929 L -58.898494,119.08929 L -58.898494,111.66679 L -58.175994,111.66679 L -58.175994,119.08929 z M -57.870994,109.19429 C -57.870994,109.56179 -58.160994,109.85304 -58.527244,109.85304 C -58.898494,109.85304 -59.188494,109.56179 -59.188494,109.19429 C -59.188494,108.84179 -58.898494,108.53679 -58.527244,108.53679 C -58.160994,108.53679 -57.870994,108.84179 -57.870994,109.19429"
       id="path659"
       style="fill:#00492c;fill-opacity:1;fill-rule:nonzero;stroke:none" />
    <g
       transform="matrix(1.25,0,0,-1.25,-53.148624,117.78829)"
       id="g661">
      <path
         d="M 0,0 L 2.106,4.896 L 2.698,4.896 L -0.013,-1.363 L -2.736,4.896 L -2.145,4.896 L 0,0 z"
         id="path663"
         style="fill:#00492c;fill-opacity:1;fill-rule:nonzero;stroke:none" />
    </g>
    <g
       transform="matrix(1.25,0,0,-1.25,-42.739734,114.77005)"
       id="g665">
      <path
         d="M 0,0 C -0.14,1.094 -1.04,2.069 -2.262,2.069 C -3.47,2.069 -4.472,1.121 -4.574,0 L 0,0 z M -4.574,-0.54 C -4.614,-2.041 -3.573,-3.043 -2.197,-3.043 C -1.272,-3.043 -0.528,-2.492 -0.103,-1.694 L 0.386,-1.978 C -0.154,-3.004 -1.106,-3.585 -2.274,-3.585 C -4.035,-3.585 -5.153,-2.157 -5.153,-0.473 C -5.153,1.183 -4.009,2.609 -2.274,2.609 C -0.475,2.609 0.59,1.17 0.579,-0.54 L -4.574,-0.54 z"
         id="path667"
         style="fill:#00492c;fill-opacity:1;fill-rule:nonzero;stroke:none" />
    </g>
    <g
       transform="matrix(1.25,0,0,-1.25,-39.545254,112.62954)"
       id="g669">
      <path
         d="M 0,0 L 0.025,0 C 0.258,0.537 0.682,0.896 1.313,0.896 C 1.543,0.896 1.736,0.846 1.939,0.756 L 1.633,0.242 C 1.49,0.319 1.375,0.357 1.221,0.357 C -0.078,0.357 0,-1.26 0,-2.137 L 0,-5.168 L -0.578,-5.168 L -0.578,0.769 L 0,0.769 L 0,0 z"
         id="path671"
         style="fill:#00492c;fill-opacity:1;fill-rule:nonzero;stroke:none" />
    </g>
    <g
       transform="matrix(1.25,0,0,-1.25,-32.686124,113.01715)"
       id="g673">
      <path
         d="M 0,0 C -0.194,0.41 -0.579,0.667 -1.042,0.667 C -1.543,0.667 -2.057,0.257 -2.057,-0.257 C -2.057,-1.685 0.835,-0.989 0.835,-3.135 C 0.835,-4.228 -0.014,-4.987 -1.079,-4.987 C -2.067,-4.987 -2.879,-4.382 -3.122,-3.418 L -2.557,-3.238 C -2.337,-3.945 -1.864,-4.445 -1.079,-4.445 C -0.335,-4.445 0.259,-3.854 0.259,-3.11 C 0.259,-2.376 -0.308,-2.146 -0.899,-1.942 C -1.708,-1.647 -2.634,-1.299 -2.634,-0.295 C -2.634,0.605 -1.878,1.207 -1.015,1.207 C -0.411,1.207 0.247,0.809 0.501,0.257 L 0,0 z"
         id="path675"
         style="fill:#00492c;fill-opacity:1;fill-rule:nonzero;stroke:none" />
    </g>
    <path
       d="M -28.780994,119.08929 L -29.508494,119.08929 L -29.508494,111.66679 L -28.780994,111.66679 L -28.780994,119.08929 z M -28.478494,109.19429 C -28.478494,109.56179 -28.769744,109.85304 -29.135994,109.85304 C -29.508494,109.85304 -29.794744,109.56179 -29.794744,109.19429 C -29.794744,108.84179 -29.508494,108.53679 -29.135994,108.53679 C -28.769744,108.53679 -28.478494,108.84179 -28.478494,109.19429"
       id="path677"
       style="fill:#00492c;fill-opacity:1;fill-rule:nonzero;stroke:none" />
    <g
       transform="matrix(1.25,0,0,-1.25,-25.217604,119.09018)"
       id="g679">
      <path
         d="M 0,0 L -0.58,0 L -0.58,5.397 L -1.233,5.397 L -1.233,5.938 L -0.58,5.938 L -0.58,8.057 L 0,8.057 L 0,5.938 L 1.038,5.938 L 1.038,5.397 L 0,5.397 L 0,0 z"
         id="path681"
         style="fill:#00492c;fill-opacity:1;fill-rule:nonzero;stroke:none" />
    </g>
    <g
       transform="matrix(1.25,0,0,-1.25,-22.955744,111.6683)"
       id="g683">
      <path
         d="M 0,0 L 0.604,0 L 3.136,-5.373 L 5.409,0 L 5.999,0 L 2.018,-9.405 L 1.424,-9.405 L 2.852,-6.04 L 0,0 z"
         id="path685"
         style="fill:#00492c;fill-opacity:1;fill-rule:nonzero;stroke:none" />
    </g>
    <g
       transform="matrix(1.25,0,0,-1.25,-10.297134,115.39316)"
       id="g687">
      <path
         d="M 0,0 C 0,-1.351 1.067,-2.544 2.469,-2.544 C 3.919,-2.544 5.05,-1.439 5.05,0 C 5.05,1.464 3.933,2.568 2.469,2.568 C 1.053,2.568 0,1.373 0,0 M 5.627,0.012 C 5.627,-1.75 4.254,-3.086 2.506,-3.086 C 0.796,-3.086 -0.578,-1.683 -0.578,0 C -0.578,1.706 0.784,3.107 2.506,3.107 C 4.254,3.107 5.627,1.773 5.627,0.012"
         id="path689"
         style="fill:#00492c;fill-opacity:1;fill-rule:nonzero;stroke:none" />
    </g>
    <g
       transform="matrix(1.25,0,0,-1.25,-0.7903644,119.09018)"
       id="g691">
      <path
         d="M 0,0 L -0.577,0 L -0.577,4.508 L -1.232,4.508 L -1.232,5.048 L -0.577,5.048 L -0.577,7.707 C -0.577,8.143 -0.564,8.774 -0.346,9.158 C -0.075,9.635 0.439,9.881 0.979,9.881 C 1.158,9.881 1.326,9.855 1.493,9.79 L 1.493,9.262 C 1.34,9.288 1.184,9.339 1.016,9.339 C 0.014,9.339 0,8.338 0,7.591 L 0,5.048 L 1.493,5.048 L 1.493,4.508 L 0,4.508 L 0,0 z"
         id="path693"
         style="fill:#00492c;fill-opacity:1;fill-rule:nonzero;stroke:none" />
    </g>
    <g
       transform="matrix(1.25,0,0,-1.25,8.1599956,107.70091)"
       id="g695">
      <path
         d="M 0,0 L 0,-3.521 L 3.906,-3.521 L 3.906,-4.1 L 0,-4.1 L 0,-8.531 L 4.007,-8.531 L 4.007,-9.111 L -0.618,-9.111 L -0.618,0.579 L 4.007,0.579 L 4.007,0 L 0,0 z"
         id="path697"
         style="fill:#00492c;fill-opacity:1;fill-rule:nonzero;stroke:none" />
    </g>
    <g
       transform="matrix(1.25,0,0,-1.25,21.311756,115.25041)"
       id="g699">
      <path
         d="M 0,0 C 0,1.376 -0.938,2.454 -2.375,2.454 C -3.739,2.454 -4.679,1.221 -4.679,-0.064 C -4.679,-1.427 -3.778,-2.659 -2.34,-2.659 C -0.822,-2.659 0,-1.427 0,0 M -0.037,-2.006 L -0.063,-2.006 C -0.5,-2.763 -1.451,-3.201 -2.325,-3.201 C -4.124,-3.201 -5.256,-1.797 -5.256,-0.064 C -5.256,1.67 -4.139,2.993 -2.35,2.993 C -1.438,2.993 -0.566,2.583 -0.063,1.84 L -0.037,1.84 L -0.037,6.618 L 0.539,6.618 L 0.539,-3.072 L -0.037,-3.072 L -0.037,-2.006 z"
         id="path701"
         style="fill:#00492c;fill-opacity:1;fill-rule:nonzero;stroke:none" />
    </g>
    <g
       transform="matrix(1.25,0,0,-1.25,29.681016,111.6683)"
       id="g703">
      <path
         d="M 0,0 L 0,-3.56 C 0,-4.163 0.012,-4.768 -0.361,-5.266 C -0.77,-5.808 -1.465,-6.066 -2.134,-6.066 C -2.803,-6.066 -3.497,-5.808 -3.906,-5.266 C -4.28,-4.768 -4.268,-4.163 -4.268,-3.56 L -4.268,0 L -3.688,0 L -3.688,-3.354 C -3.688,-4.497 -3.559,-5.524 -2.134,-5.524 C -0.709,-5.524 -0.578,-4.497 -0.578,-3.354 L -0.578,0 L 0,0 z"
         id="path705"
         style="fill:#00492c;fill-opacity:1;fill-rule:nonzero;stroke:none" />
    </g>
    <g
       transform="matrix(1.25,0,0,-1.25,37.727896,113.38579)"
       id="g707">
      <path
         d="M 0,0 C -0.566,0.617 -1.247,0.962 -2.098,0.962 C -3.494,0.962 -4.551,-0.233 -4.551,-1.581 C -4.551,-2.933 -3.511,-4.15 -2.108,-4.15 C -1.258,-4.15 -0.463,-3.741 0.076,-3.085 L 0.076,-3.868 C -0.529,-4.394 -1.285,-4.692 -2.082,-4.692 C -3.843,-4.692 -5.13,-3.318 -5.13,-1.581 C -5.13,0.141 -3.817,1.501 -2.068,1.501 C -1.299,1.501 -0.59,1.272 0,0.771 L 0,0 z"
         id="path709"
         style="fill:#00492c;fill-opacity:1;fill-rule:nonzero;stroke:none" />
    </g>
    <g
       transform="matrix(1.25,0,0,-1.25,39.702866,115.33093)"
       id="g711">
      <path
         d="M 0,0 C 0,-1.363 0.9,-2.594 2.339,-2.594 C 3.854,-2.594 4.678,-1.363 4.678,0.064 C 4.678,1.441 3.738,2.518 2.301,2.518 C 0.938,2.518 0,1.286 0,0 M 5.217,-3.007 L 4.637,-3.007 L 4.637,-1.941 L 4.612,-1.941 C 4.177,-2.698 3.225,-3.136 2.351,-3.136 C 0.551,-3.136 -0.578,-1.733 -0.578,0 C -0.578,1.734 0.538,3.058 2.326,3.058 C 3.239,3.058 4.112,2.647 4.612,1.904 L 4.637,1.904 L 4.637,2.93 L 5.217,2.93 L 5.217,-3.007 z"
         id="path713"
         style="fill:#00492c;fill-opacity:1;fill-rule:nonzero;stroke:none" />
    </g>
    <g
       transform="matrix(1.25,0,0,-1.25,49.502756,119.09018)"
       id="g715">
      <path
         d="M 0,0 L -0.58,0 L -0.58,5.397 L -1.236,5.397 L -1.236,5.938 L -0.58,5.938 L -0.58,8.057 L 0,8.057 L 0,5.938 L 1.037,5.938 L 1.037,5.397 L 0,5.397 L 0,0 z"
         id="path717"
         style="fill:#00492c;fill-opacity:1;fill-rule:nonzero;stroke:none" />
    </g>
    <path
       d="M 53.049006,119.08929 L 52.326506,119.08929 L 52.326506,111.66679 L 53.049006,111.66679 L 53.049006,119.08929 z M 53.352756,109.19429 C 53.352756,109.56179 53.065256,109.85304 52.697756,109.85304 C 52.326506,109.85304 52.036506,109.56179 52.036506,109.19429 C 52.036506,108.84179 52.326506,108.53679 52.697756,108.53679 C 53.065256,108.53679 53.352756,108.84179 53.352756,109.19429"
       id="path719"
       style="fill:#00492c;fill-opacity:1;fill-rule:nonzero;stroke:none" />
    <g
       transform="matrix(1.25,0,0,-1.25,55.810126,115.39316)"
       id="g721">
      <path
         d="M 0,0 C 0,-1.351 1.069,-2.544 2.468,-2.544 C 3.919,-2.544 5.051,-1.439 5.051,0 C 5.051,1.464 3.935,2.568 2.468,2.568 C 1.056,2.568 0,1.373 0,0 M 5.63,0.012 C 5.63,-1.75 4.254,-3.086 2.506,-3.086 C 0.799,-3.086 -0.576,-1.683 -0.576,0 C -0.576,1.706 0.785,3.107 2.506,3.107 C 4.254,3.107 5.63,1.773 5.63,0.012"
         id="path723"
         style="fill:#00492c;fill-opacity:1;fill-rule:nonzero;stroke:none" />
    </g>
    <g
       transform="matrix(1.25,0,0,-1.25,65.321876,112.82604)"
       id="g725">
      <path
         d="M 0,0 L 0.024,0 C 0.368,0.656 1.015,1.054 1.783,1.054 C 3.313,1.054 3.736,0.104 3.736,-1.426 L 3.736,-5.011 L 3.16,-5.011 L 3.16,-1.426 C 3.16,-0.359 3.031,0.514 1.733,0.514 C 0.243,0.514 0,-0.874 0,-2.082 L 0,-5.011 L -0.581,-5.011 L -0.581,0.926 L 0,0.926 L 0,0 z"
         id="path727"
         style="fill:#00492c;fill-opacity:1;fill-rule:nonzero;stroke:none" />
    </g>
  </g>
</svg>
